<svg id="logo-30" viewBox="0 0 48 39" fill="none" xmlns="http://www.w3.org/2000/svg">
	<path
		d="M17.123 2L26.1218 2L22.5097 12.0943C16.1521 13.2115 11.2895 19.3625 11.2895 26.783C11.2895 30.1305 12.2791 33.2197 13.949 35.7049L2.00006 35.7049L12.9237 5.17808C13.6105 3.25863 15.2736 2 17.123 2Z"
		class="ccompli1" fill="#341492"></path>
	<path d="M26.1216 2L23.583 9.09426L22.8181 2L26.1216 2Z" fill="black" fill-opacity="0.3"></path>
	<path
		d="M31.8169 2L22.8181 2L26.415 12.0517C32.8991 13.0452 37.8942 19.262 37.8942 26.783C37.8942 30.1305 36.9046 33.2197 35.2347 35.7049L46.9398 35.7049L36.0162 5.17809C35.3294 3.25863 33.6663 2 31.8169 2Z"
		class="ccustom" fill="#4C28B5"></path>
	<path
		d="M15.5181 34.7334C13.9803 32.5434 13.0633 29.7829 13.0633 26.7829C13.0633 19.6655 18.2249 13.8958 24.592 13.8958C30.9592 13.8958 36.1208 19.6655 36.1208 26.7829C36.1208 29.7829 35.2038 32.5434 33.666 34.7334C31.1415 32.854 27.9987 31.7395 24.592 31.7395C21.1854 31.7395 18.0426 32.854 15.5181 34.7334Z"
		class="ccustom" fill="#4C28B5"></path>
</svg>