<?xml version="1.0" standalone="no"?>
<!DOCTYPE svg PUBLIC "-//W3C//DTD SVG 20010904//EN"
 "http://www.w3.org/TR/2001/REC-SVG-20010904/DTD/svg10.dtd">
<svg version="1.0" xmlns="http://www.w3.org/2000/svg"
 width="516.000000pt" height="516.000000pt" viewBox="0 0 516.000000 516.000000"
 preserveAspectRatio="xMidYMid meet">
<metadata>
Created by potrace 1.14, written by Peter Selinger 2001-2017
</metadata>
<g transform="translate(0.000000,516.000000) scale(0.100000,-0.100000)"
fill="#000000" stroke="none">
<path d="M0 3865 l0 -1245 1240 1240 c682 682 1240 1242 1240 1245 0 3 -558 5
-1240 5 l-1240 0 0 -1245z"/>
<path d="M1953 3154 l-1953 -1954 0 -580 0 -580 665 0 665 0 623 623 c343 342
632 630 643 639 20 17 35 3 660 -622 l639 -640 633 0 632 0 0 624 0 623 -645
645 -645 645 645 645 645 646 0 621 0 621 -627 -1 -628 -1 -1952 -1954z"/>
</g>
</svg>
