<svg viewBox="0 0 512 512.00075" xmlns="http://www.w3.org/2000/svg">
    <path
        d="m506.144531 123.859375-118-118c-7.8125-7.8125-20.476562-7.8125-28.285156 0l-103.859375 103.855469c-111.21875-110.9375-104.398438-105.386719-109.457031-107.777344-2.734375-1.296875-5.71875-1.9375-8.542969-1.9375-75.839844 0-137.99609375 61.609375-137.99609375 138.089844.02734375 5.464844 2.27343775 10.472656 5.85546875 14.054687l103.855469 103.855469-103.855469 103.859375c-7.8125 7.808594-7.8125 20.472656 0 28.285156l118 118c7.808594 7.808594 20.472656 7.808594 28.285156 0l103.855469-103.859375c90.414062 90.394532 85.398438 86.875 92.402344 88.9375 5.339844 1.570313 1.5.46875 123.636718.820313 11.046876 0 20-8.957031 20-20-.035156-128.449219.417969-119.609375-.867187-123.828125-2.609375-8.574219-1.875-4.003906-88.886719-92.214844l103.855469-103.855469c7.8125-7.8125 7.8125-20.476562.003906-28.285156zm-309.144531 280.855469-44.859375-44.855469c-7.808594-7.808594-20.472656-7.808594-28.285156 0-7.808594 7.808594-7.808594 20.472656 0 28.285156l44.859375 44.855469-30.714844 30.714844-89.714844-89.714844 89.714844-89.714844 89.714844 89.714844zm255.039062 47.328125h-75.945312c7.914062-38.023438 37.925781-68.03125 75.945312-75.945313zm-21.804687-111.523438c-42.527344 13.546875-76.167969 47.191407-89.714844 89.714844-17.128906-17.128906-281.335937-281.335937-300.195312-300.191406 3.855469-47.703125 42.011719-85.863281 89.714843-89.71875 3.820313 3.820312 217.699219 217.695312 229.808594 229.808593.003906.003907.007813.007813.011719.011719 0 0 .003906.003907.007813.007813zm2.765625-171.804687-44.855469-44.855469c-7.8125-7.808594-20.476562-7.808594-28.285156 0-7.8125 7.808594-7.8125 20.472656 0 28.285156l44.855469 44.855469-30.714844 30.714844-89.714844-89.714844 89.714844-89.714844 89.714844 89.714844zm0 0" />
</svg>