<svg viewBox="0 0 512 512" xmlns="http://www.w3.org/2000/svg">
    <path
        d="m374.726562 138.636719h117.273438c11.046875 0 20-8.953125 20-20v-98.636719c0-11.046875-8.953125-20-20-20h-117.273438c-11.042968 0-20 8.953125-20 20v29.316406h-98.726562c-11.046875 0-20 8.957032-20 20v166.683594h-78v-58.667969c0-11.046875-8.953125-20-20-20h-118c-11.046875 0-20 8.953125-20 20v157.332031c0 11.046876 8.953125 20 20 20h118c11.046875 0 20-8.953124 20-20v-58.664062h78v166.683594c0 11.042968 8.953125 20 20 20h98.726562v29.316406c0 11.046875 8.957032 20 20 20h117.273438c11.046875 0 20-8.953125 20-20v-98.636719c0-11.046875-8.953125-20-20-20h-117.273438c-11.042968 0-20 8.953125-20 20v29.320313h-78.726562v-146.683594h78.726562v29.316406c0 11.046875 8.957032 20 20 20h117.273438c11.046875 0 20-8.953125 20-20v-98.632812c0-11.046875-8.953125-20-20-20h-117.273438c-11.042968 0-20 8.953125-20 20v29.316406h-78.726562v-146.683594h78.726562v29.320313c0 11.046875 8.957032 20 20 20zm-256.726562 176.03125h-78v-117.335938h78zm276.726562 98.695312h77.273438v58.636719h-77.273438zm0-186.679687h77.273438v58.632812h-77.273438zm0-186.683594h77.273438v58.636719h-77.273438zm0 0" />
</svg>