<svg viewBox="0 -54 512 511" xmlns="http://www.w3.org/2000/svg">
    <path
        d="m506.140625 55.273438c-68.699219-68.699219-177.023437-72.550782-250.140625-12.796876-73.097656-59.738281-181.417969-55.929687-250.140625 12.796876-3.753906 3.75-5.859375 8.835937-5.859375 14.140624v314.667969c0 17.753907 21.550781 26.726563 34.140625 14.140625 57.269531-57.269531 150.449219-57.265625 207.71875 0 7.808594 7.808594 20.472656 7.808594 28.28125 0 57.269531-57.269531 150.449219-57.265625 207.71875 0 12.550781 12.554688 34.140625 3.660156 34.140625-14.140625v-314.667969c0-5.304687-2.105469-10.390624-5.859375-14.140624zm-34.140625 287.660156c-66.753906-41.109375-153.957031-36.363282-216 14.226562-62.269531-50.777344-149.496094-55.183594-216-14.222656v-264.933594c57-51.179687 145.769531-50.535156 201.859375 5.550782 7.804687 7.808593 20.472656 7.8125 28.28125.003906 56.023437-56.023438 144.785156-56.804688 201.859375-5.554688zm-41.945312-220.859375c10.335937 3.898437 15.554687 15.4375 11.65625 25.769531-3.898438 10.335938-15.4375 15.554688-25.773438 11.65625-33.984375-12.816406-71.34375-12.640625-105.195312.503906-10.292969 3.992188-21.882813-1.097656-25.882813-11.40625-4-10.296875 1.109375-21.882812 11.40625-25.882812 43.054687-16.714844 90.570313-16.941406 133.789063-.640625zm-200.914063 26.523437c-4.011719 10.339844-15.628906 15.390625-25.882813 11.40625-33.851562-13.144531-71.210937-13.320312-105.195312-.503906-10.335938 3.898438-21.875-1.320312-25.773438-11.652344-3.898437-10.335937 1.320313-21.875 11.65625-25.773437 43.21875-16.300781 90.734376-16.070313 133.789063.644531 10.296875 3.996094 15.40625 15.582031 11.40625 25.878906zm212.570313 95.941406c-3.898438 10.332032-15.4375 15.550782-25.773438 11.652344-33.984375-12.816406-71.34375-12.640625-105.195312.507813-10.292969 3.992187-21.882813-1.097657-25.882813-11.40625-4-10.296875 1.109375-21.886719 11.40625-25.882813 43.054687-16.714844 90.566406-16.945312 133.789063-.644531 10.335937 3.898437 15.554687 15.4375 11.65625 25.773437zm-212.570313.753907c-4.011719 10.339843-15.628906 15.386719-25.882813 11.40625-33.851562-13.144531-71.210937-13.320313-105.195312-.507813-10.335938 3.902344-21.875-1.320312-25.773438-11.652344-3.898437-10.335937 1.320313-21.875 11.65625-25.773437 43.21875-16.300781 90.734376-16.070313 133.789063.644531 10.296875 3.996094 15.40625 15.585938 11.40625 25.882813zm0 0" />
</svg>