<svg xmlns="http://www.w3.org/2000/svg" viewBox="0 0 554.81 137.4">
    <defs>
        <style>
            .kubsk-1 {
                fill: #0f1221;
            }

            .kubsk-2 {
                fill: #5e3aef;
            }
        </style>
    </defs>
    <g id="Layer_2" data-name="Layer 2">
        <g id="Layer_1-2" data-name="Layer 1">
            <polygon class="kubsk-1" points="47.87 0 33.91 0 0 0 0 47.87 0 65.34 65.34 0 47.87 0" />
            <polygon class="kubsk-2"
                points="135.41 0 102.6 0 0 102.6 0 133.05 30.96 133.05 31.81 133.05 32.02 133.05 33.14 133.05 34.9 133.05 67.21 100.74 67.24 100.77 68.61 99.4 102.26 133.05 135.41 133.05 135.41 100.3 101.56 66.45 135.41 32.6 135.41 0" />
            <path class="kubsk-1"
                d="M190.74,28.05h20.64v29h.48l19.68-29H254.1L230.82,59.73,258.66,106H236.1L218.82,76,211.38,86.6V106H190.74Z" />
            <path class="kubsk-1"
                d="M264.66,83V46.05H285.3V80.36c0,7.68,1.92,9.6,6,9.6,3.84,0,6-1.44,8.64-5.28V46.05h20.64v60h-16.8l-1.44-7.92h-.48c-4.8,5.76-10.32,9.36-18.48,9.36C270.18,107.48,264.66,97.88,264.66,83Z" />
            <path class="kubsk-1"
                d="M353.46,99.56H353L351.3,106H335.22V22.53h20.64V42l-.48,8.64a22.08,22.08,0,0,1,14.76-6c14.16,0,23.4,12,23.4,30.36,0,20.75-12.24,32.51-25,32.51C363.3,107.48,358,104.84,353.46,99.56Zm19-24.24c0-9.84-2.88-13.91-8.4-13.91-3.12,0-5.52,1.19-8.16,4.32V87.8a11,11,0,0,0,7.68,2.88C368.34,90.68,372.42,86.84,372.42,75.32Z" />
            <path class="kubsk-1"
                d="M400.74,99.08l9.12-12.72c5.52,4.08,10.44,6,14.64,6s6-1.2,6-3.6c0-3.12-5.53-4.56-11.52-7-7-2.76-15.12-7.91-15.12-17.75,0-11.76,9.6-19.44,23.76-19.44,9.84,0,16.79,4,22.07,7.92l-9.12,12.24c-4.31-3.13-8.52-5-12.23-5-3.48,0-5.29,1-5.29,3.36,0,3.12,5.29,4.31,11.29,6.47,7.19,2.64,15.35,7.21,15.35,18,0,11.28-8.88,19.92-25.67,19.92A40,40,0,0,1,400.74,99.08Z" />
            <path class="kubsk-2"
                d="M486.9,28.05h20.64v29H508l19.68-29h22.56L527,59.73,554.81,106H532.25L515,76,507.54,86.6V106H486.9Z" />
            <text />
        </g>
    </g>
</svg>