<svg xmlns="http://www.w3.org/2000/svg" xmlns:xlink="http://www.w3.org/1999/xlink" id="Layer_1" data-name="Layer 1" viewBox="0 0 1500 1200">
	<defs>
		<style>
			.cls-1 {
				fill: url(#linear-gradient);
			}

			.cls-2 {
				fill: #f7931e;
			}

			.cls-3,
			.cls-8,
			.cls-9 {
				fill: #fff;
			}

			.cls-3 {
				opacity: 0.2;
				isolation: isolate;
			}

			.cls-4,
			.cls-5,
			.cls-7 {
				fill: none;
			}

			.cls-4 {
				stroke: #000;
				stroke-width: 0.5px;
			}

			.cls-4,
			.cls-5,
			.cls-7,
			.cls-8 {
				stroke-miterlimit: 10;
			}

			.cls-5,
			.cls-7,
			.cls-8 {
				stroke: #fff;
			}

			.cls-5 {
				stroke-width: 26px;
			}

			.cls-6 {
				fill: #fbb03b;
			}

			.cls-7 {
				stroke-width: 32px;
			}

			.cls-8 {
				stroke-width: 10px;
			}
		</style>
	</defs>
	<rect class="cls-1" width="1500" height="1200"/>
	<g>
		<g id="flask_fill" data-name="flask fill">
			<path class="cls-2" d="M388.72,966.71,506.17,723c7-14.79,7-14.79,9.09-15.08C590.83,696.75,673.1,722.05,754,721.41c23.48-.2,46.1-4.93,72-6.06,16-.76,50.41-4.14,66.28-6.41,34.91-4.92,45.7-3.42,81-3.45,3.91,0,13.45,23,15.2,26.54L1097.67,975.8c2.46,4.93-3.58,12.69-9.09,12.69l-690.42-3.57C392.76,984.89,386.38,971.66,388.72,966.71Z" transform="translate(0 0)"/>
			<path class="cls-3" d="M442.12,990.05l-52.54-4.42c-8.84-4.32-2.43-17.92.44-24.29L504.49,718.83c2.94-6.37,14.87-16.34,23.71-12l34.58-1c8.84,4.3,33.69,0,30.75,6.28l-129.87,278C460.77,996.4,451.06,994.35,442.12,990.05Z" transform="translate(0 0)"/>
			<line class="cls-4" x1="456.38" y1="750.98" x2="456.38" y2="750.34"/>
			<path class="cls-5" d="M506.34,706.3c23.48-5.15,48-2.34,71.93.4,63.05,7.24,126.46,13.7,189.91,11.52,70.76-2.34,141.14-15.64,211.87-12.22" transform="translate(0 0)"/>
			<circle class="cls-6" cx="623.15" cy="856.53" r="42.9"/>
			<circle class="cls-6" cx="889" cy="837.09" r="32.65"/>
			<circle class="cls-6" cx="778.2" cy="787.81" r="23.73"/>
			<circle class="cls-6" cx="681.94" cy="602.6" r="36.49"/>
			<circle class="cls-6" cx="820.41" cy="653.06" r="21.09"/>
			<circle class="cls-6" cx="799.32" cy="461.08" r="14.96"/>
			<circle class="cls-6" cx="705.55" cy="362.67" r="18.23" transform="translate(234.54 1001.01) rotate(-80.78)"/>
			<path class="cls-6" d="M830.93,242.56c0,12.86-10.42,16.73-23.28,16.73s-23.29-3.87-23.29-16.73a23.29,23.29,0,0,1,46.57,0v0Z" transform="translate(0 0)"/>
			<circle class="cls-6" cx="735.8" cy="186.63" r="12.02"/>
			<circle class="cls-6" cx="792.52" cy="135.41" r="6.01"/>
		</g>
		<g id="flask_outline" data-name="flask outline">
			<path class="cls-7" d="M866.07,324.06V441.62c0,19,6.7,48.48,14.78,65.61l216.82,452.71c8.18,17.12-.64,31.11-19.71,31.11H407.79c-19,0-27.79-14-19.71-31.11L604.9,507.23c8.18-17.13,14.78-46.64,14.78-65.61V324.06" transform="translate(0 0)"/>
			<path class="cls-8" d="M888.76,330.74h-72a7.39,7.39,0,0,1-7.39-7.39h0a7.39,7.39,0,0,1,7.39-7.39h72.39a29,29,0,0,0,29.17-25.72,28.36,28.36,0,0,0-25.66-30.83q-1.28-.12-2.55-.12H596.57A29,29,0,0,0,567.4,285a28.35,28.35,0,0,0,25.65,30.83c.85.08,1.7.12,2.56.12H747.8a7.39,7.39,0,0,1,7.39,7.39h0a7.39,7.39,0,0,1-7.39,7.39H597c-25.67,0-46.42-21-44.35-46.61a43.16,43.16,0,0,1,43-39.62H890.14a43.17,43.17,0,0,1,43,39.62C935.18,309.73,914.43,330.74,888.76,330.74Z" transform="translate(0 0)"/>
		</g>
	</g>
</svg>