<svg xmlns="http://www.w3.org/2000/svg" fill="#ffe98d" viewBox="0 0 63.78 70">
    <g id="Layer_2" data-name="Layer 2">
        <g id="Layer_2-2" data-name="Layer 2">
            <path d="M63.78,70H51.89V41.49H30.09V70H18.24V0H30.09V27.92h21.8V0H63.78Z"></path>
            <path d="M34.65,42.85V50a12.24,12.24,0,0,1-3.21.88v9.41a37,37,0,0,0,15.06-4V42.85Z"></path>
            <path
                d="M12.48,35.26q0-7.29,4.4-11.72v-12A26.45,26.45,0,0,0,8,16.86Q0,24.17,0,35.77T7.32,53.88a24.44,24.44,0,0,0,9.56,5.2V47.22C16.8,47.14,12.48,43.85,12.48,35.26Z">
            </path>
            <path d="M44.23,13.14A44.53,44.53,0,0,0,31.44,11V20.3a29.6,29.6,0,0,1,12.79,3.24Z"></path>
        </g>
    </g>
</svg>