<svg xmlns="http://www.w3.org/2000/svg" width="87.13795" height="55.01629" viewBox="0 0 87.13795 55.01629">
  <defs>
    <style>
      .a {
        fill: #e2231a;
      }
    </style>
  </defs>
  <title>red-icon-vector</title>
  <g>
    <polygon class="a"
      points="87.138 55.016 56.03 15.805 54.8 20.198 52.35 11.167 41.488 5.162 39.962 10.475 39.516 4.071 32.151 0 29.36 10.847 16.617 16.235 12.799 31.07 6.945 33.746 0 55.016 7.932 55.016 10.811 45.58 15.544 44.191 20.012 35.753 16.18 45.871 13.44 46.825 11.092 55.016 20.378 55.016 28.467 23.585 33.601 24.907 35.904 35.753 38.595 26.192 60.055 31.715 54.058 55.016 68.58 55.016 66.089 43.443 72.749 55.016 87.138 55.016" />
    <rect class="a" x="37.01167" y="40.25878" width="6.36713" height="6.36673"
      transform="translate(-11.89465 71.54055) rotate(-75.56655)" />
  </g>
</svg>